<svg xmlns="http://www.w3.org/2000/svg" width="340" height="200" viewBox="0 0 340 200">
  <style>
    * { font-family: "Segoe UI", Ubuntu, "Helvetica Neue", sans-serif; }
  </style>
  <g class="gpsc-root">
    <rect x="1" y="1" rx="5" ry="5" height="99%" width="99.41176470588235%" stroke="#334155" stroke-width="1" fill="#0d1117" stroke-opacity="1"/>
    <text x="30" y="40" class="gpsc-item" style="font-size: 22px; fill: #2DD4BF;">Top Languages by Commit</text>
    <g transform="translate(0,40)">
      <g transform="translate(40,0)">
        <rect y="18" width="14" height="14" fill="#2DD4BF" stroke="#0d1117" stroke-width="1"/>
        <rect y="43.2" width="14" height="14" fill="#60A5FA" stroke="#0d1117" stroke-width="1"/>
        <rect y="68.4" width="14" height="14" fill="#A78BFA" stroke="#0d1117" stroke-width="1"/>
        <text x="16.8" y="30" style="fill: #94A3B8; font-size: 14px;">Java</text>
        <text x="16.8" y="55.2" style="fill: #94A3B8; font-size: 14px;">JavaScript</text>
        <text x="16.8" y="80.4" style="fill: #94A3B8; font-size: 14px;">HTML</text>
      </g>
      <g transform="translate(230,80)">
        <g class="arc">
          <path d="M3.67394039744206e-15,-60A60,60,0,1,1,-51.68437009224918,30.47500431775881L-30.149215887145356,17.777085852025973A35,35,0,1,0,2.1431318985078682e-15,-35Z" fill="#2DD4BF" stroke="#0d1117" stroke-width="2"/>
        </g>
        <g class="arc">
          <path d="M-51.68437009224918,30.47500431775881A60,60,0,0,1,-17.083759359109195,-57.51647734484483L-9.965526292813696,-33.55127845115948A35,35,0,0,0,-30.149215887145356,17.777085852025973Z" fill="#60A5FA" stroke="#0d1117" stroke-width="2"/>
        </g>
        <g class="arc">
          <path d="M-17.083759359109195,-57.51647734484483A60,60,0,0,1,4.226888398968133e-14,-60L2.4656848993980778e-14,-35A35,35,0,0,0,-9.965526292813696,-33.55127845115948Z" fill="#A78BFA" stroke="#0d1117" stroke-width="2"/>
        </g>
      </g>
    </g>
  </g>
</svg>
