<svg xmlns="http://www.w3.org/2000/svg" width="580" height="220" viewBox="0 0 580 220" role="img" aria-labelledby="title desc">
  <title id="title">쿠링</title>
  <desc id="desc">Campus notice API with pagination, fallback parsing, and Firebase FCM.</desc>
  <defs><linearGradient id="bg" x1="0" y1="0" x2="1" y2="1"><stop stop-color="#0B1220"/><stop offset="1" stop-color="#0B2637"/></linearGradient></defs>
  <rect x="1" y="1" width="578" height="218" rx="20" fill="url(#bg)" stroke="#21445B" stroke-width="2"/>
  <rect x="0" y="0" width="580" height="6" rx="3" fill="#38BDF8"/>
  <text x="32" y="42" fill="#7DD3FC" font-family="ui-monospace, SFMono-Regular, Menlo, Consolas, monospace" font-size="12" font-weight="700" letter-spacing="1.8">02 / CAMPUS API</text>
  <text x="32" y="84" fill="#F8FAFC" font-family="Inter, Pretendard, -apple-system, sans-serif" font-size="30" font-weight="800">쿠링</text>
  <text x="32" y="113" fill="#94A3B8" font-family="Inter, Pretendard, -apple-system, sans-serif" font-size="15">공지 수집·검색과 FCM 알림을 제공하는 API</text>
  <rect x="32" y="140" width="94" height="28" rx="14" fill="#0C4A6E"/><text x="79" y="159" text-anchor="middle" fill="#BAE6FD" font-family="Inter, sans-serif" font-size="12">Pagination</text>
  <rect x="134" y="140" width="82" height="28" rx="14" fill="#0C4A6E"/><text x="175" y="159" text-anchor="middle" fill="#BAE6FD" font-family="Inter, sans-serif" font-size="12">Fallback</text>
  <rect x="224" y="140" width="58" height="28" rx="14" fill="#0C4A6E"/><text x="253" y="159" text-anchor="middle" fill="#BAE6FD" font-family="Inter, sans-serif" font-size="12">FCM</text>
  <text x="32" y="196" fill="#64748B" font-family="Inter, Pretendard, -apple-system, sans-serif" font-size="13">페이지 수집 · 파서 복구 · Port/Adapter · 실패 테스트</text>
  <circle cx="483" cy="104" r="58" fill="#38BDF8" fill-opacity="0.08" stroke="#38BDF8" stroke-opacity="0.25"/>
  <path d="M456 72 H503 L514 83 V137 H456 Z" fill="none" stroke="#7DD3FC" stroke-width="5" stroke-linejoin="round"/>
  <path d="M503 72 V84 H514 M466 101 H503 M466 116 H495" fill="none" stroke="#7DD3FC" stroke-width="4" stroke-linecap="round"/>
  <text x="483" y="180" text-anchor="middle" fill="#F8FAFC" font-family="Inter, sans-serif" font-size="17" font-weight="800">1,000+ NOTICES</text>
</svg>
